<mxfile host="app.diagrams.net" modified="2024-06-11T18:37:12.851Z" agent="Mozilla/5.0 (Windows NT 10.0; Win64; x64) AppleWebKit/537.36 (KHTML, like Gecko) Chrome/125.0.0.0 Safari/537.36" etag="sT5UB5OlpLAPpNxrFfjG" version="24.5.2" type="device">
  <diagram name="Page-1" id="2cc2dc42-3aac-f2a9-1cec-7a8b7cbee084">
    <mxGraphModel dx="1050" dy="557" grid="1" gridSize="10" guides="1" tooltips="1" connect="1" arrows="1" fold="1" page="1" pageScale="1" pageWidth="1100" pageHeight="850" background="none" math="0" shadow="0">
      <root>
        <mxCell id="0" />
        <mxCell id="1" parent="0" />
        <mxCell id="7026571954dc6520-1" value="" style="strokeWidth=1;shadow=0;dashed=0;align=center;html=1;shape=mxgraph.mockup.containers.browserWindow;rSize=0;strokeColor=#666666;mainText=,;recursiveResize=0;rounded=0;labelBackgroundColor=none;fontFamily=Verdana;fontSize=12" parent="1" vertex="1">
          <mxGeometry x="30" y="20" width="1050" height="720" as="geometry" />
        </mxCell>
        <mxCell id="7026571954dc6520-2" value="Register" style="strokeWidth=1;shadow=0;dashed=0;align=center;html=1;shape=mxgraph.mockup.containers.anchor;fontSize=17;fontColor=#666666;align=left;" parent="7026571954dc6520-1" vertex="1">
          <mxGeometry x="60" y="12" width="110" height="26" as="geometry" />
        </mxCell>
        <mxCell id="7026571954dc6520-3" value="https://www.localhost:4300/Register" style="strokeWidth=1;shadow=0;dashed=0;align=center;html=1;shape=mxgraph.mockup.containers.anchor;rSize=0;fontSize=17;fontColor=#666666;align=left;" parent="7026571954dc6520-1" vertex="1">
          <mxGeometry x="130" y="60" width="250" height="26" as="geometry" />
        </mxCell>
        <mxCell id="qT_a9oEmARD65ZwSAQc_-11" value="" style="verticalLabelPosition=bottom;shadow=0;dashed=0;align=center;html=1;verticalAlign=top;strokeWidth=1;shape=mxgraph.mockup.graphics.simpleIcon;strokeColor=#999999;" parent="7026571954dc6520-1" vertex="1">
          <mxGeometry x="530" y="170" width="50" height="50" as="geometry" />
        </mxCell>
        <mxCell id="x9_K-nC6URY4aBt0hqj3-1" value="" style="strokeWidth=1;shadow=0;dashed=0;align=center;html=1;shape=mxgraph.mockup.forms.rrect;rSize=0;strokeColor=none;fillColor=none;" vertex="1" parent="7026571954dc6520-1">
          <mxGeometry x="420" y="240" width="310" height="400" as="geometry" />
        </mxCell>
        <mxCell id="x9_K-nC6URY4aBt0hqj3-2" value="Register" style="strokeWidth=1;shadow=0;dashed=0;align=center;html=1;shape=mxgraph.mockup.forms.anchor;fontSize=12;fontColor=#666666;align=left;resizeWidth=1;spacingLeft=0;" vertex="1" parent="x9_K-nC6URY4aBt0hqj3-1">
          <mxGeometry width="73.42105263157895" height="20" relative="1" as="geometry">
            <mxPoint x="130" y="10" as="offset" />
          </mxGeometry>
        </mxCell>
        <mxCell id="x9_K-nC6URY4aBt0hqj3-3" value="" style="shape=line;strokeColor=#ddeeff;strokeWidth=2;html=1;resizeWidth=1;" vertex="1" parent="x9_K-nC6URY4aBt0hqj3-1">
          <mxGeometry width="290" height="10" relative="1" as="geometry">
            <mxPoint x="10" y="30" as="offset" />
          </mxGeometry>
        </mxCell>
        <mxCell id="x9_K-nC6URY4aBt0hqj3-4" value="User Name:" style="strokeWidth=1;shadow=0;dashed=0;align=center;html=1;shape=mxgraph.mockup.forms.anchor;fontSize=12;fontColor=#666666;align=left;resizeWidth=1;spacingLeft=0;" vertex="1" parent="x9_K-nC6URY4aBt0hqj3-1">
          <mxGeometry width="155" height="20" relative="1" as="geometry">
            <mxPoint x="10" y="228" as="offset" />
          </mxGeometry>
        </mxCell>
        <mxCell id="x9_K-nC6URY4aBt0hqj3-5" value="johndoe" style="strokeWidth=1;shadow=0;dashed=0;align=center;html=1;shape=mxgraph.mockup.forms.rrect;rSize=0;strokeColor=#999999;fontColor=#666666;align=left;spacingLeft=5;resizeWidth=1;" vertex="1" parent="x9_K-nC6URY4aBt0hqj3-1">
          <mxGeometry width="290" height="25" relative="1" as="geometry">
            <mxPoint x="10" y="248" as="offset" />
          </mxGeometry>
        </mxCell>
        <mxCell id="x9_K-nC6URY4aBt0hqj3-6" value="Password:" style="strokeWidth=1;shadow=0;dashed=0;align=center;html=1;shape=mxgraph.mockup.forms.anchor;fontSize=12;fontColor=#666666;align=left;resizeWidth=1;spacingLeft=0;" vertex="1" parent="x9_K-nC6URY4aBt0hqj3-1">
          <mxGeometry width="155" height="20" relative="1" as="geometry">
            <mxPoint x="10" y="282" as="offset" />
          </mxGeometry>
        </mxCell>
        <mxCell id="x9_K-nC6URY4aBt0hqj3-7" value="********" style="strokeWidth=1;shadow=0;dashed=0;align=center;html=1;shape=mxgraph.mockup.forms.rrect;rSize=0;strokeColor=#999999;fontColor=#666666;align=left;spacingLeft=5;resizeWidth=1;" vertex="1" parent="x9_K-nC6URY4aBt0hqj3-1">
          <mxGeometry width="290" height="25" relative="1" as="geometry">
            <mxPoint x="10" y="302" as="offset" />
          </mxGeometry>
        </mxCell>
        <mxCell id="x9_K-nC6URY4aBt0hqj3-8" value="Register" style="strokeWidth=1;shadow=0;dashed=0;align=center;html=1;shape=mxgraph.mockup.forms.rrect;rSize=5;strokeColor=none;fontColor=#ffffff;fillColor=#66bbff;fontSize=16;fontStyle=1;" vertex="1" parent="x9_K-nC6URY4aBt0hqj3-1">
          <mxGeometry y="1" width="290" height="30" relative="1" as="geometry">
            <mxPoint x="10" y="-49" as="offset" />
          </mxGeometry>
        </mxCell>
        <mxCell id="x9_K-nC6URY4aBt0hqj3-9" value="Login" style="strokeWidth=1;shadow=0;dashed=0;align=center;html=1;shape=mxgraph.mockup.forms.anchor;fontSize=12;fontColor=#9999ff;align=left;spacingLeft=0;fontStyle=4;resizeWidth=1;" vertex="1" parent="x9_K-nC6URY4aBt0hqj3-1">
          <mxGeometry y="1" width="232.5" height="40" relative="1" as="geometry">
            <mxPoint x="155" y="-20" as="offset" />
          </mxGeometry>
        </mxCell>
        <mxCell id="x9_K-nC6URY4aBt0hqj3-10" value="Already have an account?" style="strokeWidth=1;shadow=0;dashed=0;align=center;html=1;shape=mxgraph.mockup.forms.anchor;fontSize=12;fontColor=#666666;align=left;spacingLeft=0;resizeWidth=1;" vertex="1" parent="x9_K-nC6URY4aBt0hqj3-1">
          <mxGeometry y="1" width="232.5" height="20" relative="1" as="geometry">
            <mxPoint x="10" y="-9" as="offset" />
          </mxGeometry>
        </mxCell>
        <mxCell id="x9_K-nC6URY4aBt0hqj3-11" value="First Name:" style="strokeWidth=1;shadow=0;dashed=0;align=center;html=1;shape=mxgraph.mockup.forms.anchor;fontSize=12;fontColor=#666666;align=left;resizeWidth=1;spacingLeft=0;" vertex="1" parent="x9_K-nC6URY4aBt0hqj3-1">
          <mxGeometry x="8.157894736842104" y="40" width="155" height="20" as="geometry" />
        </mxCell>
        <mxCell id="x9_K-nC6URY4aBt0hqj3-12" value="johndoe" style="strokeWidth=1;shadow=0;dashed=0;align=center;html=1;shape=mxgraph.mockup.forms.rrect;rSize=0;strokeColor=#999999;fontColor=#666666;align=left;spacingLeft=5;resizeWidth=1;" vertex="1" parent="x9_K-nC6URY4aBt0hqj3-1">
          <mxGeometry x="8.16" y="60" width="291.84" height="25" as="geometry" />
        </mxCell>
        <mxCell id="x9_K-nC6URY4aBt0hqj3-13" value="Last Name:" style="strokeWidth=1;shadow=0;dashed=0;align=center;html=1;shape=mxgraph.mockup.forms.anchor;fontSize=12;fontColor=#666666;align=left;resizeWidth=1;spacingLeft=0;" vertex="1" parent="x9_K-nC6URY4aBt0hqj3-1">
          <mxGeometry x="8.157894736842104" y="90" width="155" height="20" as="geometry" />
        </mxCell>
        <mxCell id="x9_K-nC6URY4aBt0hqj3-14" value="johndoe" style="strokeWidth=1;shadow=0;dashed=0;align=center;html=1;shape=mxgraph.mockup.forms.rrect;rSize=0;strokeColor=#999999;fontColor=#666666;align=left;spacingLeft=5;resizeWidth=1;" vertex="1" parent="x9_K-nC6URY4aBt0hqj3-1">
          <mxGeometry x="8.16" y="110" width="291.84" height="25" as="geometry" />
        </mxCell>
        <mxCell id="x9_K-nC6URY4aBt0hqj3-15" value="Email:" style="strokeWidth=1;shadow=0;dashed=0;align=center;html=1;shape=mxgraph.mockup.forms.anchor;fontSize=12;fontColor=#666666;align=left;resizeWidth=1;spacingLeft=0;" vertex="1" parent="x9_K-nC6URY4aBt0hqj3-1">
          <mxGeometry x="8.157894736842104" y="160" width="155" height="20" as="geometry" />
        </mxCell>
        <mxCell id="x9_K-nC6URY4aBt0hqj3-16" value="johndoe@gmail.com" style="strokeWidth=1;shadow=0;dashed=0;align=center;html=1;shape=mxgraph.mockup.forms.rrect;rSize=0;strokeColor=#999999;fontColor=#666666;align=left;spacingLeft=5;resizeWidth=1;" vertex="1" parent="x9_K-nC6URY4aBt0hqj3-1">
          <mxGeometry x="8.16" y="180" width="291.84" height="25" as="geometry" />
        </mxCell>
        <mxCell id="x9_K-nC6URY4aBt0hqj3-19" value="Go back Home" style="strokeWidth=1;shadow=0;dashed=0;align=center;html=1;shape=mxgraph.mockup.forms.anchor;fontSize=12;fontColor=#9999ff;align=left;spacingLeft=0;fontStyle=4;resizeWidth=1;" vertex="1" parent="7026571954dc6520-1">
          <mxGeometry x="530" y="660" width="100" height="40" as="geometry" />
        </mxCell>
        <mxCell id="x9_K-nC6URY4aBt0hqj3-17" value="1" style="ellipse;shape=doubleEllipse;whiteSpace=wrap;html=1;aspect=fixed;" vertex="1" parent="1">
          <mxGeometry x="710" y="140" width="70" height="70" as="geometry" />
        </mxCell>
        <mxCell id="x9_K-nC6URY4aBt0hqj3-18" value="&lt;ol style=&quot;font-size: 16px;&quot;&gt;&lt;li style=&quot;font-size: 16px;&quot;&gt;&lt;span style=&quot;background-color: initial;&quot;&gt;Main Body Component&lt;/span&gt;&lt;/li&gt;&lt;/ol&gt;" style="text;strokeColor=none;fillColor=none;html=1;whiteSpace=wrap;verticalAlign=middle;overflow=hidden;fontSize=16;" vertex="1" parent="1">
          <mxGeometry x="1100" y="130" width="220" height="160" as="geometry" />
        </mxCell>
      </root>
    </mxGraphModel>
  </diagram>
</mxfile>
